# xmcd
#
# Track frame offsets:
#	150
#	14766
#	27464
#	41301
#	55624
#	66114
#	73774
#	88575
#	102072
#	114393
#	134021
#	146893
#	161160
#	181006
#	194864
#	207875
#	221003
#	232062
#	248021
#	262806
#
# Disc length: 3657 seconds
#
# Revision: 0
# Processed by: cddbd v1.5.2PL0 Copyright (c) Steve Scherf et al.
# Submitted via: audiograbber 1.83.01
#
DISCID=2b0e4714
DTITLE=Various / Sommer Hits fuer Kids (Special Tchibo)
DYEAR=
DGENRE=
TTITLE0=Danikkl / So ein schoener Tag (Fliegerlied)
TTITLE1=Frank und siene Freunde / 2 kleine Woelfe
TTITLE2=Kindeliederbande / Theo Theo (Veo Veo)
TTITLE3=Volker Rosin - Tschu Tschu wah / Die Eisenbahn
TTITLE4=Sebastian Bach feat. Las Sardinas / Wenn der Elefant in die Disco geht
TTITLE5=Kindeliederbande / Head, Shoulders, Knees and Toes
TTITLE6=herrH / Komm, wir fliegen
TTITLE7=Kinderliederbande / Das singende Kaenguruh
TTITLE8=Tomm der Trommler / Sommerlied
TTITLE9=Mai Cocopelli / Flubbdance
TTITLE10=Danikkl / Lass die Sonne rein
TTITLE11=Kinderliedserbande / Das rote Pferd
TTITLE12=Frank und seine Freunde / Endlich Sommer
TTITLE13=Lena, Felix und die Kita-Kids / Wenn du froehlich bist
TTITLE14=Phil, Ina und die Kita-Kids / In meiner Haengematte
TTITLE15=Kinderliederbande / Der Gorilla mit der Sonnenbrille
TTITLE16=Danikkl / Aram Sam Sam
TTITLE17=Kinderliederbande / Hoerst du die Regenwuermer husten
TTITLE18=herrH / Ich bin ein Pinguin
TTITLE19=Kinderliederbande / Im Mondenschein
EXTD=
EXTT0=
EXTT1=
EXTT2=
EXTT3=
EXTT4=
EXTT5=
EXTT6=
EXTT7=
EXTT8=
EXTT9=
EXTT10=
EXTT11=
EXTT12=
EXTT13=
EXTT14=
EXTT15=
EXTT16=
EXTT17=
EXTT18=
EXTT19=
PLAYORDER=
